<svg width="50" height="32" viewBox="0 0 50 32" fill="none" xmlns="http://www.w3.org/2000/svg">
<g clip-path="url(#clip0_1107_16466)">
<g clip-path="url(#clip1_1107_16466)">
<path d="M0 31.8503V0.149689H5.78747V27.3213H19.8052V31.8503H0Z" fill="#1D1D20"/>
<path d="M41.0172 0.709664C38.407 0.709664 36.0157 2.0387 34.0238 4.56515C32.4752 6.46966 31.2358 8.99611 30.3055 11.8787C29.4655 14.671 28.9785 17.551 28.9785 20.0335C28.9785 23.0477 29.3315 25.44 29.9087 27.2129C30.9265 30.0051 32.653 31.3342 35.2633 31.3342C39.6438 31.3342 43.6275 27.7445 47.1242 20.6529H47.5674L45.0448 29.3393C41.9913 31.0684 38.4508 31.9974 34.7763 31.9974C30.7049 31.9974 27.3422 30.8 24.9072 28.4516C22.4721 26.1471 21.2327 22.7793 21.2327 18.6993C21.2327 15.3755 22.1629 12.0955 23.9331 9.21547C25.7034 6.37934 28.1823 4.02837 31.192 2.38966C34.0676 0.794825 37.3866 -0.00259399 40.7956 -0.00259399C42.3881 -0.00259399 44.0707 0.263212 45.6194 0.663212C47.3896 1.15095 48.8945 1.86063 49.9999 2.70192L48.5389 10.0593H48.0957C48.0519 7.35482 47.4773 5.22837 46.547 3.67741C45.3514 1.72644 43.4935 0.707083 41.0147 0.707083L41.0172 0.709664Z" fill="#1D1D20"/>
</g>
</g>
<defs>
<clipPath id="clip0_1107_16466">
<rect width="50" height="32" fill="white"/>
</clipPath>
<clipPath id="clip1_1107_16466">
<rect width="50" height="32" fill="white"/>
</clipPath>
</defs>
</svg>
